<svg xmlns="http://www.w3.org/2000/svg" viewBox="0 0 32 32">
  <rect width="32" height="32" rx="3" ry="3" style="fill: #5b91e5;"></rect>
  <path d="M 16.888 24.402 L 13.045 24.402 L 6.077 13.843 C 5.669 13.227 5.386 12.762 5.228 12.449 L 5.181 12.449 C 5.244 13.043 5.275 13.949 5.275 15.168 L 5.275 24.402 L 1.68 24.402 L 1.68 7.597 L 5.782 7.597 L 12.491 17.828 C 12.797 18.289 13.08 18.746 13.34 19.199 L 13.387 19.199 C 13.324 18.809 13.293 18.039 13.293 16.89 L 13.293 7.597 L 16.888 7.597 L 16.888 24.402 Z M 30.32 24.402 L 20.252 24.402 L 20.252 7.597 L 24.061 7.597 L 24.061 21.332 L 30.32 21.332 L 30.32 24.402 Z" fill="#fefefe"></path>
</svg>