<?xml version="1.0" encoding="utf-8"?>
<svg xmlns="http://www.w3.org/2000/svg" style="display: none;">
  <symbol id="icon-expand" viewBox="0 -960 960 960">
    <path d="M480-344 240-584l56-56 184 184 184-184 56 56-240 240Z"/>
  </symbol>
  <symbol id="icon-scrollup" viewBox="0 -960 960 960">
    <path d="M480-528 296-344l-56-56 240-240 240 240-56 56-184-184Z"/>
  </symbol>
  <symbol id="icon-infinity" viewBox="0 -960 960 960">
    <path d="M220-260q-92 0-156-64T0-480q0-92 64-156t156-64q37 0 71 13t61 37l68 62-60 54-62-56q-16-14-36-22t-42-8q-58 0-99 41t-41 99q0 58 41 99t99 41q22 0 42-8t36-22l310-280q27-24 61-37t71-13q92 0 156 64t64 156q0 92-64 156t-156 64q-37 0-71-13t-61-37l-68-62 60-54 62 56q16 14 36 22t42 8q58 0 99-41t41-99q0-58-41-99t-99-41q-22 0-42 8t-36 22L352-310q-27 24-61 37t-71 13Z"/>
  </symbol>
  <symbol id="icon-engineering" viewBox="0 -960 960 960">
    <path d="m370-80-16-128q-13-5-24.5-12T307-235l-119 50L78-375l103-78q-1-7-1-13.5v-27q0-6.5 1-13.5L78-585l110-190 119 50q11-8 23-15t24-12l16-128h220l16 128q13 5 24.5 12t22.5 15l119-50 110 190-103 78q1 7 1 13.5v27q0 6.5-2 13.5l103 78-110 190-118-50q-11 8-23 15t-24 12L590-80H370Zm70-80h79l14-106q31-8 57.5-23.5T639-327l99 41 39-68-86-65q5-14 7-29.5t2-31.5q0-16-2-31.5t-7-29.5l86-65-39-68-99 42q-22-23-48.5-38.5T533-694l-13-106h-79l-14 106q-31 8-57.5 23.5T321-633l-99-41-39 68 86 64q-5 15-7 30t-2 32q0 16 2 31t7 30l-86 65 39 68 99-42q22 23 48.5 38.5T427-266l13 106Zm42-180q58 0 99-41t41-99q0-58-41-99t-99-41q-59 0-99.5 41T342-480q0 58 40.5 99t99.5 41Zm-2-140Z"/>
  </symbol>
  <symbol id="icon-manage" viewBox="0 -960 960 960">
    <path d="M400-480q-66 0-113-47t-47-113q0-66 47-113t113-47q66 0 113 47t47 113q0 66-47 113t-113 47ZM80-160v-112q0-33 17-62t47-44q51-26 115-44t141-18h14q6 0 12 2-8 18-13.5 37.5T404-360h-4q-71 0-127.5 18T180-306q-9 5-14.5 14t-5.5 20v32h252q6 21 16 41.5t22 38.5H80Zm560 40-12-60q-12-5-22.5-10.5T584-204l-58 18-40-68 46-40q-2-14-2-26t2-26l-46-40 40-68 58 18q11-8 21.5-13.5T628-460l12-60h80l12 60q12 5 22.5 11t21.5 15l58-20 40 70-46 40q2 12 2 25t-2 25l46 40-40 68-58-18q-11 8-21.5 13.5T732-180l-12 60h-80Zm40-120q33 0 56.5-23.5T760-320q0-33-23.5-56.5T680-400q-33 0-56.5 23.5T600-320q0 33 23.5 56.5T680-240ZM400-560q33 0 56.5-23.5T480-640q0-33-23.5-56.5T400-720q-33 0-56.5 23.5T320-640q0 33 23.5 56.5T400-560Zm0-80Zm12 400Z"/>
  </symbol>
  <symbol id="icon-learn" viewBox="0 -960 960 960">
    <path d="M480-120 200-272v-240L40-600l440-240 440 240v320h-80v-276l-80 44v240L480-120Zm0-332 274-148-274-148-274 148 274 148Zm0 241 200-108v-151L480-360 280-470v151l200 108Zm0-241Zm0 90Zm0 0Z"/>
  </symbol>
  <symbol id="icon-safety" viewBox="0 -960 960 960">
    <path d="M160-240q-50 0-85-35t-35-85v-240q0-50 35-85t85-35h476l-156 80H160q-17 0-28.5 11.5T120-600v240q0 17 11.5 28.5T160-320h404q17 23 37 43t43 37H160Zm-40-80v-320 320Zm620 40q-80-29-130-118t-50-202q41-5 85-25t95-55q51 35 95 55t85 25q0 113-50 202T740-280Zm0-89q35-23 60-68t35-102q-23-8-46.5-19.5T740-585v216Z"/>
  </symbol>
  <symbol id="icon-tools" viewBox="0 -960 960 960">
    <path d="M686-132 444-376q-20 8-40.5 12t-43.5 4q-100 0-170-70t-70-170q0-36 10-68.5t28-61.5l146 146 72-72-146-146q29-18 61.5-28t68.5-10q100 0 170 70t70 170q0 23-4 43.5T584-516l244 242q12 12 12 29t-12 29l-84 84q-12 12-29 12t-29-12Zm29-85 27-27-256-256q18-20 26-46.5t8-53.5q0-60-38.5-104.5T386-758l74 74q12 12 12 28t-12 28L332-500q-12 12-28 12t-28-12l-74-74q9 57 53.5 95.5T360-440q26 0 52-8t47-25l256 256ZM472-488Z"/>
  </symbol>
  <symbol id="icon-system" viewBox="0 -960 960 960">
    <path d="M323-160q-11 0-20.5-5.5T288-181l-78-139h58l40 80h92v-40h-68l-40-80H188l-57-100q-2-5-3.5-10t-1.5-10q0-4 5-20l57-100h104l40-80h68v-40h-92l-40 80h-58l78-139q5-10 14.5-15.5T323-800h97q17 0 28.5 11.5T460-760v160h-60l-40 40h100v120h-88l-40-80h-92l-40 40h108l40 80h112v200q0 17-11.5 28.5T420-160h-97Zm237 0q-33 0-56.5-23.5T480-240q0-23 11-40.5t29-28.5v-342q-18-11-29-28.5T480-720q0-33 23.5-56.5T560-800q33 0 56.5 23.5T640-720q0 23-11 40.5T600-651v101l80-48q0-34 23.5-58t56.5-24q33 0 56.5 23.5T840-600q0 33-23.5 56.5T760-520q-11 0-20.5-2.5T721-530l-91 55 101 80q7-3 14-4t15-1q33 0 56.5 23.5T840-320q0 33-23.5 56.5T760-240q-37 0-60.5-28T681-332l-81-65v89q18 11 28.5 28.5T639-240q0 33-23 56.5T560-160Z"/>
  </symbol>
  <symbol id="icon-download" viewBox="0 -960 960 960">
    <path d="M480-320 280-520l56-58 104 104v-326h80v326l104-104 56 58-200 200ZM240-160q-33 0-56.5-23.5T160-240v-120h80v120h480v-120h80v120q0 33-23.5 56.5T720-160H240Z"/>
  </symbol>
</svg>
