<svg xmlns="http://www.w3.org/2000/svg" viewBox="82.869 226.956 358.056 36.895" preserveAspectRatio="xMidYMid meet" class="signature-svg">
  <path d="M 100.847 248.566 Q 104.129 248.566 104.129 250.324 Q 104.129 251.613 100.847 252.105 Q 95.972 252.809 89.48 252.844 Q 82.988 252.879 82.988 250.277 Q 82.988 249.926 83.398 249.48 Q 83.808 249.035 85.156 249.035 Q 86.504 249.035 87.722 249.152 Q 88.941 249.269 90.921 249.246 Q 92.902 249.223 96.078 248.894 Q 99.254 248.566 100.847 248.566 Z M 137.916 228.762 L 139.017 228.715 Q 139.626 228.715 139.626 229.184 Q 139.626 229.324 139.58 229.394 Q 128.376 245.871 118.65 261.691 Q 118.134 262.535 117.736 262.652 Q 117.712 262.652 117.501 262.746 Q 116.33 263.191 115.861 263.191 Q 115.392 263.191 115.345 263.215 Q 115.134 263.449 114.841 263.449 Q 114.548 263.449 114.455 263.437 Q 114.361 263.426 113.916 263.25 Q 113.47 263.074 113.47 262.98 Q 113.47 261.832 113.564 261.598 Q 114.056 259.934 118.978 252.211 Q 123.9 244.488 128.998 237.141 Q 134.095 229.793 135.173 228.949 Q 135.501 228.691 136.041 228.691 Z M 152.516 255.832 Q 152.68 256.91 152.68 257.531 Q 152.68 258.152 152.458 258.609 Q 152.235 259.066 151.473 259.898 Q 150.712 260.73 149.657 261.574 Q 147.079 263.613 144.384 263.613 Q 140.516 263.613 140.516 260.191 Q 140.516 257.215 145.696 248.332 Q 145.884 248.004 145.954 247.863 Q 144.149 249.129 139.052 254.766 Q 133.954 260.402 132.266 262.746 Q 132.126 262.957 131.563 263.215 Q 131.001 263.473 130.684 263.473 Q 130.368 263.473 130.005 263.273 Q 129.641 263.074 129.548 263.074 Q 129.243 263.074 129.243 262.875 Q 129.243 262.676 130.075 260.719 Q 130.907 258.762 132.266 255.855 Q 135.993 247.84 143.352 234.996 Q 145.93 230.496 147.384 228.621 Q 148.415 227.285 150.852 227.285 Q 151.368 227.285 151.438 227.59 Q 151.509 227.894 151.509 228.246 Q 151.509 228.598 151.368 228.949 L 148.86 232.863 Q 141.407 244.488 137.634 252.129 Q 141.29 247.676 144.735 245.262 Q 146.868 243.738 147.934 243.738 Q 149.001 243.738 149.868 244.078 Q 150.735 244.418 150.735 245.707 Q 150.735 246.176 149.212 249.176 Q 144.641 258.176 144.641 259.172 Q 144.641 260.168 145.462 260.168 Q 146.657 260.168 149.141 257.848 Q 151.016 256.09 151.509 255.598 Q 151.79 255.387 152.024 255.387 Q 152.47 255.387 152.516 255.832 Z M 161.419 249.973 Q 166.95 243.691 170.84 243.691 Q 171.801 243.691 172.422 244.266 Q 173.044 244.84 173.044 245.754 Q 173.044 246.668 171.743 248.812 Q 170.442 250.957 169.34 252.434 Q 168.755 253.184 168.016 253.184 Q 167.278 253.184 166.868 252.644 Q 166.458 252.105 166.458 251.379 Q 166.458 249.762 168.192 247.723 L 168.145 247.676 Q 167.372 247.746 164.313 250.723 Q 161.255 253.699 159.11 256.055 Q 156.965 258.41 154.458 261.785 Q 153.731 262.793 153.227 262.793 Q 152.723 262.793 151.891 262.477 Q 151.059 262.16 150.883 262.019 Q 150.708 261.879 150.708 261.551 Q 150.708 261.223 150.895 260.789 Q 151.083 260.355 151.587 259.559 Q 152.09 258.762 153.11 256.98 Q 154.13 255.199 156.286 251.59 Q 158.442 247.98 158.864 247.23 Q 159.755 245.684 160.317 244.98 Q 161.372 243.644 163.88 243.644 Q 164.442 243.644 164.442 244.348 Q 164.442 245.449 162.403 248.496 Z M 202.938 229.441 L 204.649 229.066 Q 205.305 229.066 205.703 229.348 Q 206.102 229.629 206.102 229.875 Q 206.102 230.121 205.985 230.59 Q 205.868 231.059 204.086 239.73 Q 202.305 248.402 201.485 252.668 Q 205.469 247.254 210.789 239.332 Q 216.11 231.41 217 228.809 Q 217.282 227.988 217.727 227.543 Q 218.172 227.098 218.524 227.016 Q 218.875 226.934 219.602 226.934 Q 220.328 226.934 221.325 227.25 Q 222.321 227.566 222.321 228.293 Q 222.321 229.676 218.219 236.262 Q 214.118 242.848 208.856 250.254 Q 203.594 257.66 200.055 261.973 Q 199.422 262.746 198.52 262.746 Q 197.618 262.746 196.621 262.43 Q 195.625 262.113 195.625 261.316 Q 195.625 258.738 200.149 236.543 Q 196.282 241.559 190.75 250.512 Q 184.985 259.769 184.235 261.996 Q 183.813 263.332 183.274 263.543 Q 182.899 263.707 182.477 263.707 L 180.625 263.918 Q 180.086 263.918 179.629 263.613 Q 179.172 263.309 179.172 262.98 Q 179.172 262.043 181.762 257.379 Q 184.352 252.715 187.809 247.242 Q 191.266 241.769 195.039 236.59 Q 198.813 231.41 200.875 229.629 Q 201.297 229.254 201.836 229.254 Z M 230.784 237.012 Q 230.784 238.348 229.542 239.695 Q 228.3 241.043 226.952 241.043 Q 225.604 241.043 225.604 239.637 Q 225.604 238.23 226.788 236.953 Q 227.972 235.676 229.401 235.676 Q 230.034 235.676 230.409 236.027 Q 230.784 236.379 230.784 237.012 Z M 226.987 257.473 Q 226.987 258.176 226.847 258.48 Q 225.698 260.824 223.19 262.266 Q 220.682 263.707 218.831 263.707 Q 216.979 263.707 215.643 262.465 Q 214.307 261.223 214.307 259.934 Q 214.307 258.644 215.597 256.184 Q 216.886 253.723 218.175 251.637 Q 219.464 249.551 219.464 249.375 Q 219.464 249.199 218.983 248.684 Q 218.503 248.168 218.503 247.922 Q 218.503 247.676 219.475 246.633 Q 220.448 245.59 221.843 244.57 Q 223.237 243.551 223.975 243.551 Q 224.714 243.551 225.3 244.207 Q 225.886 244.863 225.886 245.402 Q 225.886 245.941 220.307 255.551 Q 220.237 255.691 219.921 256.172 Q 219.604 256.652 219.429 256.969 Q 219.253 257.285 219.018 257.73 Q 218.55 258.668 218.55 259.301 Q 218.55 260.098 219.628 260.098 Q 220.706 260.098 221.866 259.359 Q 223.026 258.621 223.87 257.73 Q 226.073 255.363 226.378 255.363 Q 226.987 255.363 226.987 257.473 Z M 243.497 257.543 Q 243.497 257.543 244.101 257.156 Q 244.704 256.769 245.056 256.477 Q 245.408 256.184 245.876 255.785 Q 246.345 255.387 246.65 255.387 Q 247.119 255.387 247.119 256.453 Q 247.119 257.519 246.076 258.75 Q 245.033 259.98 243.486 260.836 Q 241.939 261.691 240.181 262.324 Q 236.689 263.613 234.24 263.613 Q 231.79 263.613 229.822 262.008 Q 227.853 260.402 227.853 257.812 Q 227.853 255.223 229.142 252.633 Q 230.431 250.043 232.458 248.086 Q 234.486 246.129 237.169 244.91 Q 239.853 243.691 242.478 243.691 Q 243.744 243.691 244.751 244.418 Q 245.759 245.144 245.759 246.41 Q 245.759 247.676 244.505 249.445 Q 243.251 251.215 241.962 251.215 Q 240.462 251.215 240.462 249.785 Q 240.462 249.41 241.165 248.449 Q 241.869 247.488 241.869 247.148 Q 241.869 246.809 241.611 246.809 Q 240.322 246.809 238.845 247.699 Q 237.369 248.59 236.161 249.574 Q 234.954 250.559 233.876 251.777 Q 231.533 254.426 231.533 257.285 Q 231.533 258.434 232.271 259.266 Q 233.009 260.098 234.755 260.098 Q 236.501 260.098 238.259 259.687 Q 240.017 259.277 241.154 258.797 Q 242.29 258.316 243.497 257.543 Z M 264.676 244.887 Q 264.676 244.887 265.027 244.887 Q 265.379 244.887 266.117 245.519 Q 266.855 246.152 266.855 247.453 Q 266.855 248.754 265.941 250.828 Q 265.027 252.902 263.434 255.047 Q 261.84 257.191 259.93 259.078 Q 258.02 260.965 255.805 262.172 Q 253.59 263.379 251.785 263.379 Q 249.98 263.379 248.891 262.242 Q 247.801 261.105 247.801 259.078 Q 247.801 257.051 248.797 254.59 Q 249.793 252.129 251.363 250.242 Q 252.934 248.355 254.762 246.855 Q 258.582 243.785 261.465 243.785 Q 262.754 243.785 263.41 244.418 Q 263.645 244.629 263.645 244.793 L 263.645 244.934 Q 263.973 244.887 264.676 244.887 Z M 262.309 248.004 L 262.145 248.004 Q 261.324 248.004 261.324 246.809 Q 259.613 247.371 257.738 248.777 Q 255.863 250.184 254.387 252.105 Q 251.387 255.949 251.34 258.598 Q 251.34 259.91 252.301 259.91 Q 253.262 259.91 255.16 258.644 Q 257.059 257.379 258.922 255.035 Q 260.785 252.691 261.711 250.969 Q 262.637 249.246 262.637 248.625 Q 262.637 248.004 262.309 248.004 Z M 288.853 259.816 Q 284.493 263.707 278.446 263.707 Q 274.79 263.707 273.22 262.16 Q 272.329 261.316 272.329 259.184 Q 272.329 255.902 277.321 254.941 Q 278.892 254.637 281.095 254.637 Q 283.298 254.637 287.118 255.457 Q 289.157 253.184 291.982 248.766 Q 294.806 244.348 296.446 241.957 Q 298.087 239.566 300.173 237.07 Q 302.259 234.574 304.532 232.559 Q 309.15 228.434 313.673 228.434 Q 315.689 228.434 316.579 229.453 Q 317.47 230.473 317.47 231.867 Q 317.47 233.262 316.193 235.113 Q 314.915 236.965 313.239 238.394 Q 311.564 239.824 309.935 240.82 Q 308.306 241.816 307.368 241.816 Q 306.431 241.816 305.751 241.019 Q 305.071 240.223 305.071 239.484 Q 305.071 238.746 305.271 238.453 Q 305.47 238.16 305.681 238.16 Q 305.892 238.16 305.939 238.418 Q 306.689 238.184 308.341 236.953 Q 309.993 235.723 311.353 234.387 Q 312.712 233.051 312.712 232.711 Q 312.712 232.371 312.302 232.371 Q 311.892 232.371 311.189 232.652 Q 310.485 232.934 309.314 233.812 Q 308.142 234.691 306.782 236.074 Q 303.501 239.355 299.47 245.379 Q 298.532 246.738 296.821 249.34 Q 293.329 254.613 291.829 256.559 Q 303.853 259.723 309.009 259.723 Q 311.4 259.723 312.36 259.113 Q 312.712 258.902 312.829 258.902 Q 312.946 258.902 312.946 259.09 Q 312.946 259.277 312.735 259.652 Q 312.525 260.027 311.693 261.246 Q 310.86 262.465 310.462 262.699 Q 309.314 263.379 306.56 263.379 Q 303.806 263.379 301.31 262.98 Q 298.814 262.582 297.29 262.195 Q 295.767 261.809 292.778 260.941 Q 289.79 260.074 288.853 259.816 Z M 280.298 258.387 Q 277.228 258.387 277.228 259.113 Q 277.228 259.394 277.755 259.605 Q 278.282 259.816 279.009 259.816 Q 281.282 259.816 283.392 258.621 Q 281.587 258.387 280.298 258.387 Z M 330.15 237.012 Q 330.15 238.348 328.908 239.695 Q 327.666 241.043 326.318 241.043 Q 324.97 241.043 324.97 239.637 Q 324.97 238.23 326.154 236.953 Q 327.337 235.676 328.767 235.676 Q 329.4 235.676 329.775 236.027 Q 330.15 236.379 330.15 237.012 Z M 326.353 257.473 Q 326.353 258.176 326.212 258.48 Q 325.064 260.824 322.556 262.266 Q 320.048 263.707 318.197 263.707 Q 316.345 263.707 315.009 262.465 Q 313.673 261.223 313.673 259.934 Q 313.673 258.644 314.962 256.184 Q 316.251 253.723 317.541 251.637 Q 318.83 249.551 318.83 249.375 Q 318.83 249.199 318.349 248.684 Q 317.869 248.168 317.869 247.922 Q 317.869 247.676 318.841 246.633 Q 319.814 245.59 321.208 244.57 Q 322.603 243.551 323.341 243.551 Q 324.08 243.551 324.666 244.207 Q 325.251 244.863 325.251 245.402 Q 325.251 245.941 319.673 255.551 Q 319.603 255.691 319.287 256.172 Q 318.97 256.652 318.794 256.969 Q 318.619 257.285 318.384 257.73 Q 317.916 258.668 317.916 259.301 Q 317.916 260.098 318.994 260.098 Q 320.072 260.098 321.232 259.359 Q 322.392 258.621 323.236 257.73 Q 325.439 255.363 325.744 255.363 Q 326.353 255.363 326.353 257.473 Z M 343.742 232.559 L 344.703 232.793 Q 344.914 232.793 345.078 233.004 Q 345.242 233.215 345.242 233.402 Q 345.242 233.59 344.75 234.41 Q 344.258 235.23 343.59 236.273 Q 342.922 237.316 342.875 237.41 Q 344.703 237.269 345.465 237.269 Q 346.227 237.269 346.508 237.375 Q 346.789 237.48 347.152 237.961 Q 347.516 238.441 347.82 238.687 Q 348.125 238.934 348.125 239.426 Q 348.125 239.918 347.527 240.258 Q 346.93 240.598 346.25 240.668 Q 340.812 241.207 340.25 241.23 Q 338.352 244.137 334.941 250.289 Q 331.531 256.441 331.32 257.988 Q 331.227 258.691 331.227 259.137 Q 331.227 260.051 332.187 260.051 Q 333.148 260.051 334.32 259.312 Q 335.492 258.574 336.477 257.707 Q 339.102 255.363 339.289 255.363 Q 339.898 255.363 339.898 257.473 Q 339.898 258.621 338.844 259.535 Q 336.477 261.574 334.859 262.605 Q 333.242 263.637 331.625 263.637 Q 331.273 263.637 330.969 263.566 Q 329.094 263.215 328.215 262.195 Q 327.336 261.176 327.348 259.441 Q 327.359 257.707 328.379 255.234 Q 329.398 252.762 330.945 249.973 Q 333.477 245.426 336.008 241.441 L 335.117 241.559 Q 332.398 241.863 331.953 241.863 L 331.742 241.863 Q 331.062 241.863 330.43 241.594 Q 329.797 241.324 329.797 240.926 Q 329.797 240.527 330.137 240.152 Q 330.477 239.777 330.547 239.566 Q 330.711 239.051 331.777 238.418 Q 332.844 237.785 333.383 237.75 Q 333.922 237.715 334.426 237.691 Q 334.93 237.668 335.551 237.644 Q 336.172 237.621 336.5 237.598 L 338.609 237.504 Q 340.578 234.551 341.316 233.707 Q 342.055 232.863 342.172 232.781 Q 342.289 232.699 342.641 232.699 Z M 343.512 258.059 L 343.488 258.434 Q 343.488 259.019 343.933 259.441 Q 344.379 259.863 344.754 259.863 Q 347.566 259.863 349.734 259.019 Q 351.902 258.176 351.902 257.332 Q 351.902 256.934 351.117 256.641 Q 350.332 256.348 348.469 255.914 Q 346.605 255.48 345.762 255.234 Q 344.918 254.988 344.426 254.777 Q 343.933 254.566 343.418 254.191 Q 342.316 253.418 342.316 251.883 Q 342.316 250.348 343.453 248.836 Q 344.59 247.324 346.301 246.246 Q 348.012 245.168 349.98 244.348 Q 353.871 242.73 356.519 242.73 Q 359.121 242.73 359.73 243.855 Q 359.918 244.254 359.918 244.746 L 359.918 244.91 Q 359.918 246.152 359.39 246.855 Q 358.863 247.559 357.726 248.121 Q 356.59 248.684 355.922 248.684 Q 355.254 248.684 355.078 248.59 Q 354.902 248.496 354.785 248.344 Q 354.668 248.191 354.492 248.121 Q 354.316 248.051 354.316 247.769 Q 354.316 247.488 354.551 247.195 Q 354.785 246.902 354.879 246.574 Q 353.332 246.644 351.644 247.289 Q 349.957 247.934 348.75 248.73 Q 347.543 249.527 346.746 250.254 Q 345.949 250.98 345.949 251.32 Q 345.949 251.66 347.027 251.871 Q 351.879 252.832 353.402 253.535 Q 354.926 254.238 355.512 255.129 Q 356.097 256.019 356.097 256.746 Q 356.097 258.246 354.902 259.582 Q 353.707 260.918 351.949 261.762 Q 348.176 263.613 345.375 263.613 Q 342.574 263.613 341.508 262.758 Q 340.441 261.902 340.441 260.73 Q 340.441 259.559 341.039 258.562 Q 341.637 257.566 342.574 257.566 Q 343.512 257.566 343.512 258.059 Z M 376.82 257.543 Q 376.82 257.543 377.424 257.156 Q 378.027 256.769 378.379 256.477 Q 378.73 256.184 379.199 255.785 Q 379.668 255.387 379.973 255.387 Q 380.441 255.387 380.441 256.453 Q 380.441 257.519 379.398 258.75 Q 378.355 259.98 376.808 260.836 Q 375.262 261.691 373.504 262.324 Q 370.012 263.613 367.562 263.613 Q 365.113 263.613 363.144 262.008 Q 361.176 260.402 361.176 257.812 Q 361.176 255.223 362.465 252.633 Q 363.754 250.043 365.781 248.086 Q 367.808 246.129 370.492 244.91 Q 373.176 243.691 375.801 243.691 Q 377.066 243.691 378.074 244.418 Q 379.082 245.144 379.082 246.41 Q 379.082 247.676 377.828 249.445 Q 376.574 251.215 375.285 251.215 Q 373.785 251.215 373.785 249.785 Q 373.785 249.41 374.488 248.449 Q 375.191 247.488 375.191 247.148 Q 375.191 246.809 374.933 246.809 Q 373.644 246.809 372.168 247.699 Q 370.691 248.59 369.484 249.574 Q 368.277 250.559 367.199 251.777 Q 364.855 254.426 364.855 257.285 Q 364.855 258.434 365.594 259.266 Q 366.332 260.098 368.078 260.098 Q 369.824 260.098 371.582 259.687 Q 373.34 259.277 374.476 258.797 Q 375.613 258.316 376.82 257.543 Z M 402.71 255.832 Q 402.874 256.91 402.874 257.531 Q 402.874 258.152 402.651 258.609 Q 402.428 259.066 401.667 259.898 Q 400.905 260.73 399.85 261.574 Q 397.272 263.613 394.577 263.613 Q 390.71 263.613 390.71 260.191 Q 390.71 257.215 395.889 248.332 Q 396.077 248.004 396.147 247.863 Q 394.342 249.129 389.245 254.766 Q 384.147 260.402 382.46 262.746 Q 382.319 262.957 381.756 263.215 Q 381.194 263.473 380.877 263.473 Q 380.561 263.473 380.198 263.273 Q 379.835 263.074 379.741 263.074 Q 379.436 263.074 379.436 262.875 Q 379.436 262.676 380.268 260.719 Q 381.1 258.762 382.46 255.855 Q 386.186 247.84 393.545 234.996 Q 396.124 230.496 397.577 228.621 Q 398.608 227.285 401.045 227.285 Q 401.561 227.285 401.631 227.59 Q 401.702 227.894 401.702 228.246 Q 401.702 228.598 401.561 228.949 L 399.053 232.863 Q 391.6 244.488 387.827 252.129 Q 391.483 247.676 394.928 245.262 Q 397.061 243.738 398.127 243.738 Q 399.194 243.738 400.061 244.078 Q 400.928 244.418 400.928 245.707 Q 400.928 246.176 399.405 249.176 Q 394.835 258.176 394.835 259.172 Q 394.835 260.168 395.655 260.168 Q 396.85 260.168 399.335 257.848 Q 401.21 256.09 401.702 255.598 Q 401.983 255.387 402.217 255.387 Q 402.663 255.387 402.71 255.832 Z M 404.323 263.309 L 402.823 262.98 Q 402.143 262.91 401.698 262.113 Q 401.58 261.902 401.545 261.855 Q 401.51 261.809 401.51 261.738 Q 401.51 261.668 401.557 261.539 Q 401.604 261.41 401.698 261.187 Q 401.791 260.965 401.862 260.73 Q 402.354 259.066 410.088 245.074 Q 417.823 231.082 418.186 230.648 Q 418.549 230.215 418.725 230.016 Q 418.901 229.816 419.123 229.676 Q 419.346 229.535 419.452 229.488 Q 419.557 229.441 419.873 229.336 Q 420.19 229.23 420.53 229.113 Q 420.869 228.996 421.244 228.797 Q 421.619 228.598 421.76 228.516 Q 421.901 228.434 422.123 228.434 Q 422.346 228.434 422.545 228.644 Q 422.744 228.855 422.744 229.184 L 422.744 229.348 Q 422.627 229.793 416.639 240.457 Q 410.651 251.121 410.112 252.129 Q 411.94 251.402 415.502 248.543 Q 419.065 245.684 419.1 244.746 Q 419.135 243.809 419.744 243.387 Q 420.354 242.965 421.069 242.965 Q 421.784 242.965 422.287 243.445 Q 422.791 243.926 422.768 245.016 Q 422.744 246.105 421.549 247.781 Q 420.354 249.457 418.69 250.887 Q 415.104 253.934 412.713 254.918 Q 414.612 260.051 417.073 260.051 Q 418.409 259.863 420.354 257.871 Q 421.08 257.144 421.76 256.406 Q 422.44 255.668 422.592 255.527 Q 422.744 255.387 423.026 255.387 Q 423.471 255.387 423.565 256.066 Q 423.659 256.746 423.659 257.473 Q 423.659 258.199 423.518 258.48 Q 422.838 259.793 420.541 261.68 Q 418.244 263.566 416.182 263.566 Q 414.705 263.566 413.838 263.004 Q 412.971 262.441 412.479 262.066 Q 411.987 261.691 411.471 261.047 Q 410.955 260.402 410.616 259.98 Q 410.276 259.559 409.842 258.809 Q 409.409 258.059 409.221 257.742 Q 409.034 257.426 408.67 256.711 Q 408.307 255.996 408.26 255.926 Q 407.838 256.793 407.323 257.801 Q 406.807 258.809 406.385 259.676 Q 405.963 260.543 405.612 261.258 Q 405.26 261.973 405.037 262.441 Q 404.815 262.91 404.791 262.934 Q 404.627 263.309 404.323 263.309 Z M 440.723 245.215 Q 440.723 246.762 439.469 247.934 Q 438.215 249.105 436.622 249.105 Q 436.106 249.105 435.942 248.859 Q 435.778 248.613 435.778 248.215 Q 435.778 247.816 435.872 247.441 Q 435.028 247.723 433.997 248.309 Q 432.965 248.894 431.465 250.043 Q 429.965 251.191 429.965 251.754 Q 429.965 251.941 430.516 251.941 Q 431.067 251.941 432.215 251.555 Q 433.364 251.168 433.821 251.168 Q 434.278 251.168 434.419 251.215 Q 434.723 251.379 435.075 251.93 Q 435.426 252.48 435.426 252.797 Q 435.426 253.113 434.817 253.629 Q 434.208 254.144 433.434 254.414 Q 432.661 254.684 432.403 254.824 Q 427.458 257.59 427.458 258.621 Q 427.458 260.449 430.575 260.449 Q 432.567 260.449 434.583 259.184 Q 436.294 258.105 437.665 256.992 Q 439.036 255.879 439.399 255.621 Q 439.762 255.363 439.95 255.363 Q 440.559 255.363 440.559 256.723 Q 440.559 258.082 440.395 258.516 Q 440.231 258.949 439.458 259.582 Q 434.442 263.66 429.965 263.66 Q 427.575 263.66 426.145 263.004 Q 423.52 261.809 423.52 259.348 Q 423.52 256.113 427.997 254.449 Q 427.106 254.051 426.848 253.43 Q 426.59 252.809 426.59 251.437 Q 426.59 250.066 427.868 248.531 Q 429.145 246.996 430.997 246.012 Q 435.122 243.785 438.356 243.785 Q 439.13 243.785 439.926 244.16 Q 440.723 244.535 440.723 245.215 Z" fill="currentColor"/>
</svg>